<?xml version="1.0" standalone="no"?>
<!DOCTYPE svg PUBLIC "-//W3C//DTD SVG 20010904//EN"
 "http://www.w3.org/TR/2001/REC-SVG-20010904/DTD/svg10.dtd">
<svg version="1.0" xmlns="http://www.w3.org/2000/svg"
 width="512.000000pt" height="512.000000pt" viewBox="0 0 512.000000 512.000000"
 preserveAspectRatio="xMidYMid meet">
<metadata>
Created by potrace 1.11, written by Peter Selinger 2001-2013
</metadata>
<g transform="translate(0.000000,512.000000) scale(0.100000,-0.100000)"
fill="#000000" stroke="none">
<path d="M2375 5113 c-93 -8 -217 -25 -310 -44 -429 -86 -854 -303 -1175 -598
l-65 -60 44 -1 c91 0 161 -72 161 -165 0 -59 -8 -73 -95 -170 -236 -263 -383
-513 -484 -821 -78 -239 -111 -441 -111 -687 0 -601 228 -1153 651 -1576 869
-869 2269 -869 3138 0 659 659 836 1644 449 2494 -224 492 -647 903 -1149
1118 -189 80 -433 145 -621 165 l-77 8 -3 -485 c-3 -481 -3 -486 -25 -521 -65
-104 -221 -104 -286 0 l-22 35 0 595 c0 577 1 596 20 629 25 42 62 71 106 81
27 6 19 8 -36 7 -38 0 -88 -2 -110 -4z m-43 -2167 c571 -413 562 -404 562
-520 -1 -72 -17 -108 -73 -159 -47 -42 -108 -61 -166 -52 -93 13 -104 26 -505
580 -206 285 -386 535 -399 554 l-25 35 50 -35 c27 -20 277 -201 556 -403z"/>
<path d="M2648 5113 c12 -2 30 -2 40 0 9 3 -1 5 -23 4 -22 0 -30 -2 -17 -4z"/>
</g>
</svg>
